<mxfile host="app.diagrams.net" modified="2023-10-03T01:48:55.180Z" agent="Mozilla/5.0 (Windows NT 10.0; Win64; x64) AppleWebKit/537.36 (KHTML, like Gecko) Chrome/117.0.0.0 Safari/537.36" etag="RXz-ZZPFsJsP32OBqC-k" version="22.0.1" type="device">
  <diagram name="Page-1" id="eSZWaKFqmB-5b6zHBZyC">
    <mxGraphModel dx="454" dy="1066" grid="1" gridSize="10" guides="1" tooltips="1" connect="1" arrows="1" fold="1" page="1" pageScale="1" pageWidth="850" pageHeight="1100" math="0" shadow="0">
      <root>
        <mxCell id="0" />
        <mxCell id="1" parent="0" />
        <mxCell id="F30fjvnDyxQDZyAV6Lmb-1" value="start" style="text;html=1;strokeColor=none;fillColor=none;align=center;verticalAlign=middle;whiteSpace=wrap;rounded=0;" parent="1" vertex="1">
          <mxGeometry x="100" y="520" width="30" height="40" as="geometry" />
        </mxCell>
        <mxCell id="F30fjvnDyxQDZyAV6Lmb-2" value="s&lt;sub&gt;1&lt;/sub&gt;" style="text;html=1;strokeColor=none;fillColor=none;align=center;verticalAlign=middle;whiteSpace=wrap;rounded=0;" parent="1" vertex="1">
          <mxGeometry x="190" y="490" width="40" height="20" as="geometry" />
        </mxCell>
        <mxCell id="F30fjvnDyxQDZyAV6Lmb-3" value="s&lt;sub&gt;2&lt;/sub&gt;" style="text;html=1;strokeColor=none;fillColor=none;align=center;verticalAlign=middle;whiteSpace=wrap;rounded=0;" parent="1" vertex="1">
          <mxGeometry x="191.25" y="580" width="37.5" height="20" as="geometry" />
        </mxCell>
        <mxCell id="F30fjvnDyxQDZyAV6Lmb-4" value="&lt;font size=&quot;1&quot;&gt;&amp;nbsp;p&lt;sub&gt;s1&amp;nbsp;&lt;/sub&gt;&lt;/font&gt;" style="endArrow=classic;html=1;rounded=0;exitX=1;exitY=0.5;exitDx=0;exitDy=0;entryX=0.01;entryY=0.582;entryDx=0;entryDy=0;entryPerimeter=0;strokeWidth=2;" parent="1" source="F30fjvnDyxQDZyAV6Lmb-1" target="F30fjvnDyxQDZyAV6Lmb-2" edge="1">
          <mxGeometry width="50" height="50" relative="1" as="geometry">
            <mxPoint x="250" y="590" as="sourcePoint" />
            <mxPoint x="300" y="540" as="targetPoint" />
            <mxPoint as="offset" />
          </mxGeometry>
        </mxCell>
        <mxCell id="F30fjvnDyxQDZyAV6Lmb-5" value="&lt;font size=&quot;1&quot;&gt;&amp;nbsp;p&lt;sub&gt;s2&amp;nbsp;&lt;/sub&gt;&lt;/font&gt;" style="endArrow=classic;html=1;rounded=0;exitX=1;exitY=0.5;exitDx=0;exitDy=0;entryX=0.015;entryY=0.593;entryDx=0;entryDy=0;entryPerimeter=0;strokeWidth=2;" parent="1" source="F30fjvnDyxQDZyAV6Lmb-1" target="F30fjvnDyxQDZyAV6Lmb-3" edge="1">
          <mxGeometry width="50" height="50" relative="1" as="geometry">
            <mxPoint x="250" y="590" as="sourcePoint" />
            <mxPoint x="300" y="540" as="targetPoint" />
          </mxGeometry>
        </mxCell>
        <mxCell id="F30fjvnDyxQDZyAV6Lmb-6" value="" style="endArrow=classic;html=1;rounded=0;exitX=1;exitY=0.25;exitDx=0;exitDy=0;entryX=0.054;entryY=0.501;entryDx=0;entryDy=0;entryPerimeter=0;strokeWidth=2;" parent="1" source="F30fjvnDyxQDZyAV6Lmb-2" target="F30fjvnDyxQDZyAV6Lmb-7" edge="1">
          <mxGeometry width="50" height="50" relative="1" as="geometry">
            <mxPoint x="247.5" y="500" as="sourcePoint" />
            <mxPoint x="277.5" y="482" as="targetPoint" />
          </mxGeometry>
        </mxCell>
        <mxCell id="F30fjvnDyxQDZyAV6Lmb-7" value="s&lt;sub&gt;1&lt;/sub&gt;,a&lt;sub&gt;1&lt;/sub&gt;" style="text;html=1;strokeColor=none;fillColor=none;align=center;verticalAlign=middle;whiteSpace=wrap;rounded=0;" parent="1" vertex="1">
          <mxGeometry x="280" y="450" width="40" height="20" as="geometry" />
        </mxCell>
        <mxCell id="F30fjvnDyxQDZyAV6Lmb-8" value="s&lt;sub&gt;1&lt;/sub&gt;,a&lt;sub&gt;2&lt;/sub&gt;" style="text;html=1;strokeColor=none;fillColor=none;align=center;verticalAlign=middle;whiteSpace=wrap;rounded=0;" parent="1" vertex="1">
          <mxGeometry x="280" y="490" width="40" height="20" as="geometry" />
        </mxCell>
        <mxCell id="F30fjvnDyxQDZyAV6Lmb-9" value="" style="endArrow=classic;html=1;rounded=0;exitX=1;exitY=0.5;exitDx=0;exitDy=0;entryX=0;entryY=0.5;entryDx=0;entryDy=0;strokeWidth=2;" parent="1" source="F30fjvnDyxQDZyAV6Lmb-2" target="F30fjvnDyxQDZyAV6Lmb-8" edge="1">
          <mxGeometry width="50" height="50" relative="1" as="geometry">
            <mxPoint x="250" y="590" as="sourcePoint" />
            <mxPoint x="300" y="540" as="targetPoint" />
          </mxGeometry>
        </mxCell>
        <mxCell id="F30fjvnDyxQDZyAV6Lmb-10" value="s&lt;sub&gt;1&lt;/sub&gt;,a&lt;sub&gt;3&lt;/sub&gt;" style="text;html=1;strokeColor=none;fillColor=none;align=center;verticalAlign=middle;whiteSpace=wrap;rounded=0;" parent="1" vertex="1">
          <mxGeometry x="280" y="530" width="40" height="20" as="geometry" />
        </mxCell>
        <mxCell id="F30fjvnDyxQDZyAV6Lmb-11" value="" style="endArrow=classic;html=1;rounded=0;exitX=1;exitY=0.75;exitDx=0;exitDy=0;entryX=0;entryY=0.5;entryDx=0;entryDy=0;strokeWidth=2;" parent="1" source="F30fjvnDyxQDZyAV6Lmb-2" target="F30fjvnDyxQDZyAV6Lmb-10" edge="1">
          <mxGeometry width="50" height="50" relative="1" as="geometry">
            <mxPoint x="200" y="590" as="sourcePoint" />
            <mxPoint x="250" y="540" as="targetPoint" />
          </mxGeometry>
        </mxCell>
        <mxCell id="F30fjvnDyxQDZyAV6Lmb-14" value="&lt;div style=&quot;&quot;&gt;&lt;span style=&quot;background-color: initial;&quot;&gt;200&lt;/span&gt;&lt;/div&gt;" style="text;html=1;strokeColor=none;fillColor=none;align=right;verticalAlign=middle;whiteSpace=wrap;rounded=0;" parent="1" vertex="1">
          <mxGeometry x="385" y="580" width="40" height="20" as="geometry" />
        </mxCell>
        <mxCell id="F30fjvnDyxQDZyAV6Lmb-16" value="" style="endArrow=classic;html=1;rounded=0;exitX=1;exitY=0.5;exitDx=0;exitDy=0;strokeWidth=1;entryX=0;entryY=0.5;entryDx=0;entryDy=0;" parent="1" source="F30fjvnDyxQDZyAV6Lmb-7" target="F30fjvnDyxQDZyAV6Lmb-17" edge="1">
          <mxGeometry x="-0.0588" y="-5" width="50" height="50" relative="1" as="geometry">
            <mxPoint x="300" y="530" as="sourcePoint" />
            <mxPoint x="360" y="440" as="targetPoint" />
            <mxPoint as="offset" />
          </mxGeometry>
        </mxCell>
        <mxCell id="F30fjvnDyxQDZyAV6Lmb-24" value="&lt;font style=&quot;font-size: 10px;&quot;&gt;&amp;nbsp;0.25&amp;nbsp;&lt;/font&gt;" style="edgeLabel;html=1;align=center;verticalAlign=bottom;resizable=0;points=[];horizontal=1;" parent="F30fjvnDyxQDZyAV6Lmb-16" vertex="1" connectable="0">
          <mxGeometry x="0.1529" relative="1" as="geometry">
            <mxPoint x="-3" y="8" as="offset" />
          </mxGeometry>
        </mxCell>
        <mxCell id="F30fjvnDyxQDZyAV6Lmb-17" value="- M" style="text;html=1;strokeColor=none;fillColor=none;align=right;verticalAlign=middle;whiteSpace=wrap;rounded=0;" parent="1" vertex="1">
          <mxGeometry x="385" y="430" width="40" height="20" as="geometry" />
        </mxCell>
        <mxCell id="F30fjvnDyxQDZyAV6Lmb-18" value="" style="endArrow=classic;html=1;rounded=0;exitX=1;exitY=0.5;exitDx=0;exitDy=0;strokeWidth=1;entryX=0;entryY=0.5;entryDx=0;entryDy=0;" parent="1" source="F30fjvnDyxQDZyAV6Lmb-7" target="F30fjvnDyxQDZyAV6Lmb-19" edge="1">
          <mxGeometry width="50" height="50" relative="1" as="geometry">
            <mxPoint x="330" y="470" as="sourcePoint" />
            <mxPoint x="360" y="470" as="targetPoint" />
          </mxGeometry>
        </mxCell>
        <mxCell id="F30fjvnDyxQDZyAV6Lmb-25" value="&lt;font style=&quot;font-size: 10px;&quot;&gt;&amp;nbsp;0.75&amp;nbsp;&lt;/font&gt;" style="edgeLabel;html=1;align=center;verticalAlign=middle;resizable=0;points=[];" parent="F30fjvnDyxQDZyAV6Lmb-18" vertex="1" connectable="0">
          <mxGeometry x="0.2231" y="-1" relative="1" as="geometry">
            <mxPoint x="-6" y="-4" as="offset" />
          </mxGeometry>
        </mxCell>
        <mxCell id="F30fjvnDyxQDZyAV6Lmb-19" value="M" style="text;html=1;strokeColor=none;fillColor=none;align=right;verticalAlign=middle;whiteSpace=wrap;rounded=0;" parent="1" vertex="1">
          <mxGeometry x="385" y="470" width="40" height="20" as="geometry" />
        </mxCell>
        <mxCell id="F30fjvnDyxQDZyAV6Lmb-27" value="" style="endArrow=classic;html=1;rounded=0;exitX=1;exitY=0.5;exitDx=0;exitDy=0;strokeWidth=1;entryX=0;entryY=0.5;entryDx=0;entryDy=0;" parent="1" source="F30fjvnDyxQDZyAV6Lmb-8" target="F30fjvnDyxQDZyAV6Lmb-30" edge="1">
          <mxGeometry width="50" height="50" relative="1" as="geometry">
            <mxPoint x="330" y="500" as="sourcePoint" />
            <mxPoint x="360" y="500" as="targetPoint" />
          </mxGeometry>
        </mxCell>
        <mxCell id="F30fjvnDyxQDZyAV6Lmb-28" value="&lt;font style=&quot;font-size: 10px;&quot;&gt;&amp;nbsp;1.0&amp;nbsp;&amp;nbsp;&lt;/font&gt;" style="edgeLabel;html=1;align=center;verticalAlign=middle;resizable=0;points=[];" parent="F30fjvnDyxQDZyAV6Lmb-27" vertex="1" connectable="0">
          <mxGeometry x="0.2231" y="-1" relative="1" as="geometry">
            <mxPoint x="-7" y="-3" as="offset" />
          </mxGeometry>
        </mxCell>
        <mxCell id="F30fjvnDyxQDZyAV6Lmb-30" value="0" style="text;html=1;strokeColor=none;fillColor=none;align=right;verticalAlign=middle;whiteSpace=wrap;rounded=0;" parent="1" vertex="1">
          <mxGeometry x="385" y="490" width="40" height="20" as="geometry" />
        </mxCell>
        <mxCell id="F30fjvnDyxQDZyAV6Lmb-32" value="" style="endArrow=classic;html=1;rounded=0;exitX=1;exitY=0.5;exitDx=0;exitDy=0;strokeWidth=1;entryX=0;entryY=0.5;entryDx=0;entryDy=0;" parent="1" source="F30fjvnDyxQDZyAV6Lmb-10" target="F30fjvnDyxQDZyAV6Lmb-34" edge="1">
          <mxGeometry x="-0.0588" y="-5" width="50" height="50" relative="1" as="geometry">
            <mxPoint x="330" y="540" as="sourcePoint" />
            <mxPoint x="360" y="530" as="targetPoint" />
            <mxPoint as="offset" />
          </mxGeometry>
        </mxCell>
        <mxCell id="F30fjvnDyxQDZyAV6Lmb-33" value="&lt;font style=&quot;font-size: 10px;&quot;&gt;&amp;nbsp;0.5&amp;nbsp;&amp;nbsp;&lt;/font&gt;" style="edgeLabel;html=1;align=center;verticalAlign=bottom;resizable=0;points=[];horizontal=1;" parent="F30fjvnDyxQDZyAV6Lmb-32" vertex="1" connectable="0">
          <mxGeometry x="0.1529" relative="1" as="geometry">
            <mxPoint x="-4" y="7" as="offset" />
          </mxGeometry>
        </mxCell>
        <mxCell id="F30fjvnDyxQDZyAV6Lmb-34" value="-100" style="text;html=1;strokeColor=none;fillColor=none;align=right;verticalAlign=middle;whiteSpace=wrap;rounded=0;" parent="1" vertex="1">
          <mxGeometry x="385" y="520" width="40" height="20" as="geometry" />
        </mxCell>
        <mxCell id="F30fjvnDyxQDZyAV6Lmb-35" value="400" style="text;html=1;strokeColor=none;fillColor=none;align=right;verticalAlign=middle;whiteSpace=wrap;rounded=0;" parent="1" vertex="1">
          <mxGeometry x="385" y="550" width="40" height="20" as="geometry" />
        </mxCell>
        <mxCell id="F30fjvnDyxQDZyAV6Lmb-36" value="" style="endArrow=classic;html=1;rounded=0;exitX=1;exitY=0.5;exitDx=0;exitDy=0;strokeWidth=1;entryX=0;entryY=0.5;entryDx=0;entryDy=0;" parent="1" source="F30fjvnDyxQDZyAV6Lmb-10" target="F30fjvnDyxQDZyAV6Lmb-35" edge="1">
          <mxGeometry x="-0.0588" y="-5" width="50" height="50" relative="1" as="geometry">
            <mxPoint x="350" y="550" as="sourcePoint" />
            <mxPoint x="390" y="540" as="targetPoint" />
            <mxPoint as="offset" />
          </mxGeometry>
        </mxCell>
        <mxCell id="F30fjvnDyxQDZyAV6Lmb-37" value="&lt;font style=&quot;font-size: 10px;&quot;&gt;&amp;nbsp;0.5&amp;nbsp;&amp;nbsp;&lt;/font&gt;" style="edgeLabel;html=1;align=center;verticalAlign=bottom;resizable=0;points=[];horizontal=1;" parent="F30fjvnDyxQDZyAV6Lmb-36" vertex="1" connectable="0">
          <mxGeometry x="0.1529" relative="1" as="geometry">
            <mxPoint x="-4" y="6" as="offset" />
          </mxGeometry>
        </mxCell>
        <mxCell id="F30fjvnDyxQDZyAV6Lmb-39" value="" style="endArrow=classic;html=1;rounded=0;exitX=1;exitY=0.5;exitDx=0;exitDy=0;strokeWidth=2;entryX=0;entryY=0.5;entryDx=0;entryDy=0;" parent="1" source="F30fjvnDyxQDZyAV6Lmb-3" target="F30fjvnDyxQDZyAV6Lmb-14" edge="1">
          <mxGeometry x="-0.0588" y="-5" width="50" height="50" relative="1" as="geometry">
            <mxPoint x="320" y="610" as="sourcePoint" />
            <mxPoint x="385" y="630" as="targetPoint" />
            <mxPoint as="offset" />
          </mxGeometry>
        </mxCell>
        <mxCell id="F30fjvnDyxQDZyAV6Lmb-40" value="&lt;font style=&quot;font-size: 10px;&quot;&gt;&amp;nbsp;1.0&amp;nbsp;&amp;nbsp;&lt;/font&gt;" style="edgeLabel;html=1;align=center;verticalAlign=bottom;resizable=0;points=[];horizontal=1;" parent="F30fjvnDyxQDZyAV6Lmb-39" vertex="1" connectable="0">
          <mxGeometry x="0.1529" relative="1" as="geometry">
            <mxPoint x="-15" y="8" as="offset" />
          </mxGeometry>
        </mxCell>
      </root>
    </mxGraphModel>
  </diagram>
</mxfile>
